<svg viewBox="0 0 100 100" xmlns="http://www.w3.org/2000/svg" className="w-full h-full text-border-light drop-shadow-sm">
  {/* Background / Grass */}
  <rect width="100" height="100" fill="currentColor" opacity="0.3" rx="4" />

  {/* Roads / Pathways */}
  <path d="M 0 50 Q 50 50 50 0 M 50 50 Q 50 100 100 100 M 0 80 L 100 80 M 80 0 L 80 100"
        fill="none" stroke="currentColor" strokeWidth="4" strokeDasharray="2,2" opacity="0.6" />

  {/* Building Footprints (Abstract Shapes) */}
  {/* CS Block area */}
  <rect x="25" y="20" width="20" height="15" rx="1" fill="currentColor" opacity="0.8" />
  {/* Auditorium area */}
  <circle cx="55" cy="25" r="8" fill="currentColor" opacity="0.8" />
  {/* Library area */}
  <path d="M 65 40 L 75 40 L 80 50 L 60 50 Z" fill="currentColor" opacity="0.8" />
  {/* Admin area */}
  <rect x="35" y="50" width="20" height="10" rx="1" fill="currentColor" opacity="0.8" />
  {/* Mechanical area */}
  <rect x="15" y="50" width="10" height="20" rx="1" fill="currentColor" opacity="0.8" />
  {/* Hostel area */}
  <rect x="75" y="65" width="15" height="15" rx="1" fill="currentColor" opacity="0.8" />
  {/* Sports area */}
  <rect x="15" y="70" width="20" height="15" rx="1" fill="currentColor" opacity="0.8" />

  {/* Trees / Greenery */}
  <circle cx="10" cy="10" r="3" fill="var(--color-success)" opacity="0.4" />
  <circle cx="90" cy="15" r="4" fill="var(--color-success)" opacity="0.4" />
  <circle cx="40" cy="90" r="3" fill="var(--color-success)" opacity="0.4" />
  <circle cx="90" cy="55" r="3" fill="var(--color-success)" opacity="0.4" />
</svg>
